<svg width="12" height="10" viewBox="0 0 12 10" fill="none" xmlns="http://www.w3.org/2000/svg">
<path d="M1.15176 3.19201C1.30356 3.29912 1.76114 3.61726 2.52452 4.14626C3.28792 4.67525 3.87273 5.08257 4.27899 5.36822C4.32363 5.39953 4.41845 5.4676 4.56352 5.57251C4.70861 5.67749 4.82917 5.76233 4.9251 5.82704C5.0211 5.89173 5.13715 5.9643 5.27337 6.04463C5.40955 6.12489 5.53792 6.18526 5.65845 6.22523C5.77901 6.26552 5.89061 6.28548 5.99327 6.28548H6H6.00675C6.10941 6.28548 6.22106 6.2655 6.34161 6.22523C6.4621 6.18526 6.59059 6.12482 6.72665 6.04463C6.86278 5.9642 6.97883 5.8917 7.07483 5.82704C7.17083 5.76233 7.29129 5.67749 7.43643 5.57251C7.58147 5.4675 7.67642 5.39953 7.72105 5.36822C8.1317 5.08257 9.17644 4.35709 10.8549 3.19187C11.1808 2.96429 11.4531 2.68968 11.6718 2.36823C11.8907 2.04693 12 1.70986 12 1.35722C12 1.06254 11.8939 0.810282 11.6818 0.600481C11.4698 0.390632 11.2186 0.285767 10.9285 0.285767H1.07138C0.727656 0.285767 0.463135 0.40182 0.277867 0.633927C0.0926223 0.866081 0 1.15626 0 1.50445C0 1.78569 0.122808 2.09046 0.368308 2.41857C0.613784 2.7467 0.875022 3.00453 1.15176 3.19201Z" fill="#8F8F8F"/>
<path d="M11.3303 3.90849C9.86612 4.89947 8.75438 5.66963 7.99555 6.2188C7.74109 6.40622 7.53467 6.55253 7.37614 6.65738C7.21761 6.76229 7.00678 6.86943 6.74333 6.97875C6.47999 7.08824 6.23456 7.14282 6.00684 7.14282H6.00001H5.99328C5.76561 7.14282 5.52004 7.08824 5.25669 6.97875C4.99334 6.86943 4.78237 6.76229 4.62388 6.65738C4.46545 6.55253 4.25895 6.40622 4.00452 6.2188C3.40181 5.77687 2.29245 5.00666 0.676407 3.90849C0.421878 3.73896 0.196432 3.54464 0 3.32593V8.64274C0 8.93756 0.104865 9.18968 0.314714 9.3995C0.524515 9.6094 0.776792 9.71431 1.07145 9.71431H10.9286C11.2232 9.71431 11.4755 9.6094 11.6853 9.3995C11.8952 9.18961 12 8.93759 12 8.64274V3.32593C11.808 3.54012 11.5849 3.73444 11.3303 3.90849Z" fill="#8F8F8F"/>
</svg>
