<svg width="20" height="20" viewBox="0 0 20 20" fill="none" xmlns="http://www.w3.org/2000/svg">
<path d="M3.76835 10.1406L5.66679 9.44916C5.72538 9.42576 5.79569 9.41404 5.86597 9.41404H18.03C18.3582 9.41404 18.616 9.67181 18.616 9.99998V18.2422C18.616 19.2148 17.8308 20 16.8582 20H5.1394C4.16671 20 3.38159 19.2148 3.38159 18.2422V10.6913C3.38159 10.4453 3.53397 10.2226 3.76835 10.1406Z" fill="#FC1A40"/>
<path d="M3.38135 10.6913V18.2422C3.38135 19.2148 4.16646 20 5.13916 20H10.9985V9.41404H5.86572C5.79541 9.41404 5.7251 9.42576 5.66654 9.44916L3.76811 10.1406C3.53373 10.2226 3.38135 10.4453 3.38135 10.6913Z" fill="#C60034"/>
<path d="M3.59235 3.81984C3.79153 3.01125 4.38922 2.37848 5.19782 2.12063C5.99469 1.87449 6.8502 2.05031 7.47126 2.61277L8.83067 3.80813L9.10016 2.0152C9.22907 1.19488 9.75641 0.503438 10.5415 0.175352C10.6939 0.116719 10.8462 0.0698442 10.9986 0.0464067C11.6431 -0.0824995 12.3111 0.0581254 12.8502 0.456602C13.565 0.972227 13.9282 1.83941 13.8111 2.70656C13.6822 3.57375 13.0962 4.31203 12.2642 4.605L10.9986 5.06203L9.43997 5.63625C9.42825 5.63625 9.42825 5.63625 9.42825 5.63625L6.72122 6.63231C6.45172 6.72609 6.17047 6.77301 5.90094 6.77301C5.32665 6.77301 4.76418 6.56199 4.31887 6.16359C3.66266 5.57766 3.38141 4.67527 3.59235 3.81984Z" fill="#FE9923"/>
<path d="M4.31885 6.1636C4.76416 6.562 5.32666 6.77301 5.90092 6.77301C6.17041 6.77301 6.45166 6.7261 6.72119 6.63231L9.42822 5.63625C9.42822 5.63625 9.42822 5.63625 9.43994 5.63625L10.9985 5.06204V0.0463715C10.8462 0.069848 10.6938 0.116684 10.5415 0.175317C9.75639 0.503403 9.229 1.19485 9.10014 2.01516L8.83064 3.80809L7.47123 2.61274C6.85018 2.05028 5.99467 1.87446 5.19779 2.12059C4.3892 2.37844 3.79154 3.01122 3.59232 3.81981C3.38135 4.67528 3.6626 5.57766 4.31885 6.1636Z" fill="#FE8821"/>
<path d="M1.37758 9.14445L2.17446 11.3476C2.26824 11.582 2.4909 11.7226 2.72528 11.7226C2.79559 11.7226 2.8659 11.7109 2.92445 11.6875L8.98309 9.48433L9.53383 7.66793L10.9987 7.99601L12.2877 8.28898L18.3463 6.08586C18.651 5.96871 18.8033 5.62883 18.6979 5.33586L17.8893 3.13281C17.737 2.6875 17.4088 2.33586 16.9869 2.13668C16.565 1.9375 16.0846 1.91402 15.6393 2.07808L10.9986 3.76558L10.6822 3.88273C10.6822 3.88273 9.4166 6.17965 9.38141 6.17965C9.35793 6.17965 8.85406 5.8984 8.36188 5.62883C7.86981 5.3593 7.37758 5.07808 7.37758 5.07808L2.43231 6.88273C1.98699 7.04679 1.63543 7.37496 1.43625 7.79683C1.23696 8.21867 1.21356 8.69918 1.37758 9.14445Z" fill="#FF3E75"/>
<path d="M1.37744 9.14446L2.17432 11.3476C2.26811 11.582 2.49076 11.7226 2.72514 11.7226C2.79545 11.7226 2.86576 11.7109 2.92432 11.6875L8.98295 9.48434L9.53369 7.66794L10.9985 7.99602V3.76559L10.6821 3.88274C10.6821 3.88274 9.4165 6.17966 9.38131 6.17966C9.35783 6.17966 8.85396 5.89841 8.36178 5.62884C7.86967 5.35931 7.37744 5.07809 7.37744 5.07809L2.43217 6.88274C1.98686 7.04681 1.63529 7.37497 1.43611 7.79684C1.23682 8.21868 1.21342 8.69919 1.37744 9.14446Z" fill="#FC1A40"/>
<path d="M12.7566 9.41404V20H9.24097V9.41404H12.7566Z" fill="#FCBF29"/>
<path d="M10.6824 3.88274L10.9988 4.74993L12.2878 8.28903L10.9988 8.75782L9.53398 9.28517L8.98323 9.48435L7.37769 5.07809L10.6824 3.88274Z" fill="#FCBF29"/>
<path d="M9.24048 9.41404H10.9983V20H9.24048V9.41404Z" fill="#FE9923"/>
<path d="M7.37744 5.07809L8.98295 9.48435L9.53369 9.28513L10.9985 8.75778V4.74993L10.6821 3.88274L7.37744 5.07809Z" fill="#FE9923"/>
</svg>
